<svg xmlns="http://www.w3.org/2000/svg" style="isolation:isolate" width="1300" height="499"><defs><clipPath id="a"><path d="M0 0h1300v499H0z"/></clipPath></defs><g clip-path="url(#a)"><path d="M0 0h1300c-.156 99.066-.156 259.046 0 479.939-360.621 42.35-321.107-40.244-650-28.987-328.894 11.257-343.411 60.248-650 0C1 327.508 1 177.191 0 0z" fill="#D04479"/><radialGradient id="b" fx="-.167" fy="1.101" cx="-.167" cy="1.101" r="1.478" gradientTransform="matrix(1226.637 -155.176 433.545 439.041 0 0)" gradientUnits="userSpaceOnUse"><stop offset="0%" stop-color="#0069ff"/><stop offset="2.91%" stop-color="#0269fd"/><stop offset="4.51%" stop-color="#0369fc"/><stop offset="6.01%" stop-color="#0468fb"/><stop offset="25.48%" stop-color="#1165ef"/><stop offset="100%" stop-color="#4457c0"/></radialGradient><path d="M1301 0H0v428.667c80.396-11.923 154.187-29.332 343.719-11.923 189.531 17.411 256.457 87.045 531.959 21.03 183.669-44.01 325.442-40.771 425.322 9.716V0z" fill="url(#b)"/></g></svg>