<?xml version="1.0" standalone="no"?><!-- Generator: Gravit.io --><svg xmlns="http://www.w3.org/2000/svg" xmlns:xlink="http://www.w3.org/1999/xlink" style="isolation:isolate" viewBox="0 0 1300 499" width="1300" height="499"><defs><clipPath id="_clipPath_Xwmg4y1RX3pJVh7abID5HC9Xyxr25ADk"><rect width="1300" height="499"/></clipPath></defs><g clip-path="url(#_clipPath_Xwmg4y1RX3pJVh7abID5HC9Xyxr25ADk)"><g><g><path d=" M 0 0 L 1300 0 C 1299.844 99.066 1299.844 259.046 1300 479.939 C 939.379 522.289 978.893 439.695 650 450.952 C 321.106 462.209 306.589 511.2 0 450.952 C 1 327.508 1 177.191 0 0 Z " fill="rgb(208,68,121)"/><radialGradient id="_rgradient_0" fx="-0.16718617448882828" fy="1.1012617319370506" cx="-0.16718617448882828" cy="1.1012617319370506" r="1.478" gradientTransform="matrix(1226.637,-155.176,433.545,439.041,0,0)" gradientUnits="userSpaceOnUse"><stop offset="0%" stop-opacity="1" style="stop-color:rgb(0,105,255)"/><stop offset="2.91%" stop-opacity="1" style="stop-color:rgb(2,105,253)"/><stop offset="4.51%" stop-opacity="1" style="stop-color:rgb(3,105,252)"/><stop offset="6.01%" stop-opacity="1" style="stop-color:rgb(4,104,251)"/><stop offset="25.480000000000004%" stop-opacity="1" style="stop-color:rgb(17,101,239)"/><stop offset="100%" stop-opacity="1" style="stop-color:rgb(68,87,192)"/></radialGradient><path d=" M 1301 0 L 376.299 0 L 0 0 C 0 223.961 0 366.85 0 428.667 C 80.396 416.744 154.187 399.335 343.719 416.744 C 533.25 434.155 600.176 503.789 875.678 437.774 C 1059.347 393.764 1201.12 397.003 1301 447.49 L 1301 0 Z " fill="url(#_rgradient_0)"/></g></g></g></svg>